<?xml version="1.0" encoding="utf-8"?>
<svg viewBox="0 0 500 500" xmlns="http://www.w3.org/2000/svg">
  <circle style="fill: rgb(246, 244, 244);" cx="248.494" cy="253.012" r="171.293" transform="matrix(1.428614, 0, 0, 1.371467, -104.62561, -98.1269)"/>
  <g transform="matrix(0.640073, 0, 0, 0.633275, 102.008316, 73.937546)" style="">
    <rect x="16" y="344" style="fill:#F9BA48;" width="184" height="56"/>
    <path style="fill:#F9BA48;" d="M240,256c0-30.928,25.072-56,56-56s56,25.072,56,56H240z"/>
    <path style="fill:#F9BA48;" d="M200,136c0-35.344,28.648-64,64-64c35.344,0,64,28.656,64,64H200z"/>
    <path style="fill:#F9BA48;" d="M24,56c0-17.672,14.328-32,32-32s32,14.328,32,32H24z"/>
  </g>
  <g transform="matrix(0.640073, 0, 0, 0.633275, 102.008316, 73.937546)" style="">
    <path style="fill:#333333;" d="M480,392v-48c0-30.872-25.128-56-56-56h-8v-32c0-30.872-25.128-56-56-56h-24v-24h8v-16h-8v-24 c0-37-28.056-67.536-64-71.528V32h-16v32.472C220.056,68.464,192,99,192,136v24h-8v16h8v24h-88v-96h8V88H96V56 c0-19.312-13.768-35.472-32-39.192V0H48v16.808C29.768,20.528,16,36.688,16,56v32H8v8v8v288H0v104h264h64h168V392H480z M440,392 v-32h24v32H440z M80,392v-40h112v40H80z M192,408v72H80v-72H192z M192,288v16h-57.888L104,319.056V288H192z M341.2,240h-13.44 c-0.544-9.216-2.024-16.912-4.184-23.224C331.632,222.456,337.84,230.552,341.2,240z M424,392h-32v-68.688l32,32V392z M376,328 h-59.056c-5.624-4.92-12.896-8-20.944-8s-15.32,3.08-20.944,8H208v-24h168V328z M192,336h-86.112l32-16H192V336z M248,288v-32h96 v32H248z M311.68,240h-31.36c1.504-20.808,8.768-32,15.68-32S310.168,219.192,311.68,240z M264.248,240h-13.44 c3.36-9.448,9.568-17.544,17.624-23.224C266.272,223.088,264.792,230.784,264.248,240z M232,256v32h-24v-72h38.12 C237.304,226.968,232,240.872,232,256z M70.112,336H64v-96h24v87.056L70.112,336z M64,208c10.12,0,16.64,8.68,20.344,16H27.656 C31.36,216.68,37.88,208,48,208H64z M88,202.064C82.088,196.344,74.272,192,64,192v-40h24V202.064z M48,192 c-10.272,0-18.088,4.344-24,10.064V152h24V192z M24,240h24v96H24V240z M208,344h57.136c-0.672,2.576-1.136,5.224-1.136,8v40h-40 h-16V344z M280,352c0-8.824,7.176-16,16-16s16,7.176,16,16v40h-32V352z M326.864,344H376v48h-48v-40 C328,349.224,327.536,346.576,326.864,344z M440,408v72h-48v-72H440z M424,304c22.056,0,40,17.944,40,40h-28.688l-40-40H400h16H424 z M392,288h-8h-24v-32h40v32H392z M396.608,240h-38.712c-2.304-8.888-6.424-17.04-12.016-24H360 C376.36,216,390.416,225.896,396.608,240z M319.36,128h-15.592c-0.832-14.856-3.976-28.096-8.824-38.632 C307.92,98.008,317.04,111.912,319.36,128z M256,83.784V128h-15.704C241.704,107.216,248.392,90.824,256,83.784z M272,83.784 c7.608,7.04,14.296,23.432,15.704,44.216H272V83.784z M233.056,89.368c-4.848,10.528-7.984,23.768-8.824,38.632H208.64 C210.96,111.912,220.08,98.008,233.056,89.368z M208,144h112v16H208V144z M208,176h112v20.712c-7.416-3.016-15.512-4.712-24-4.712 c-11.664,0-22.576,3.184-32,8.656V200h-56V176z M192,216v56h-24v-16h-16v16h-16v-16h-16v16h-16v-56H192z M88,136H64v-32h24V136z M56,32c10.416,0,19.216,6.712,22.528,16H33.472C36.784,38.712,45.584,32,56,32z M32,64h48v24H64V72H48v16H32V64z M48,104v32H24 v-32H48z M24,352h14.112H64v40H24V352z M16,408h48v72H48v-56H32v56H16V408z M208,480v-72h16h40v72H208z M280,480v-72h32v72H280z M328,408h48v72h-48V408z M480,480h-24v-72h24V480z"/>
    <rect x="232" y="360" style="fill:#333333;" width="16" height="16"/>
    <rect x="344" y="360" style="fill:#333333;" width="16" height="16"/>
    <rect x="96" y="424" style="fill:#333333;" width="16" height="40"/>
    <rect x="128" y="424" style="fill:#333333;" width="16" height="40"/>
    <rect x="160" y="424" style="fill:#333333;" width="16" height="40"/>
    <rect x="232" y="424" style="fill:#333333;" width="16" height="40"/>
    <rect x="344" y="424" style="fill:#333333;" width="16" height="40"/>
    <rect x="408" y="424" style="fill:#333333;" width="16" height="40"/>
    <rect x="120" y="224" style="fill:#333333;" width="16" height="16"/>
    <rect x="152" y="224" style="fill:#333333;" width="16" height="16"/>
    <rect x="216" y="224" style="fill:#333333;" width="16" height="16"/>
  </g>
  <g transform="matrix(0.580985, 0, 0, 0.573394, 116.457817, 79.560219)" style=""/>
  <g transform="matrix(0.580985, 0, 0, 0.573394, 116.457817, 79.560219)" style=""/>
  <g transform="matrix(0.580985, 0, 0, 0.573394, 116.457817, 79.560219)" style=""/>
  <g transform="matrix(0.580985, 0, 0, 0.573394, 116.457817, 79.560219)" style=""/>
  <g transform="matrix(0.580985, 0, 0, 0.573394, 116.457817, 79.560219)" style=""/>
  <g transform="matrix(0.580985, 0, 0, 0.573394, 116.457817, 79.560219)" style=""/>
  <g transform="matrix(0.580985, 0, 0, 0.573394, 116.457817, 79.560219)" style=""/>
  <g transform="matrix(0.580985, 0, 0, 0.573394, 116.457817, 79.560219)" style=""/>
  <g transform="matrix(0.580985, 0, 0, 0.573394, 116.457817, 79.560219)" style=""/>
  <g transform="matrix(0.580985, 0, 0, 0.573394, 116.457817, 79.560219)" style=""/>
  <g transform="matrix(0.580985, 0, 0, 0.573394, 116.457817, 79.560219)" style=""/>
  <g transform="matrix(0.580985, 0, 0, 0.573394, 116.457817, 79.560219)" style=""/>
  <g transform="matrix(0.580985, 0, 0, 0.573394, 116.457817, 79.560219)" style=""/>
  <g transform="matrix(0.580985, 0, 0, 0.573394, 116.457817, 79.560219)" style=""/>
  <g transform="matrix(0.580985, 0, 0, 0.573394, 116.457817, 79.560219)" style=""/>
</svg>